# xmcd CD database file
#
# Track frame offsets:
#	150
#	29321
#	46135
#	75325
#	91864
#	113392
#	124120
#	146285
#	174862
#	195070
#	215776
#	229149
#	253018
#	268706
#	293728
#	310187
#
# Disc length: 4768 seconds
#
# Revision: 0
# Processed by: cddbd v1.5.2PL0 Copyright (c) Steve Scherf et al.
# Submitted via: CDex 1.70beta2
#
DISCID=c7129e10
DTITLE=Artistes divers - Salsa Latina
DYEAR=2009
DGENRE=Salsa
TTITLE0=Papi Oviedo feat. Tabaco Ron|Chan chan
TTITLE1=Quantic and Nickodemus|My swing es tropical
TTITLE2=Orquestra Aragon|A bailar mi cha onda
TTITLE3=Son Trinidad|Dis moi
TTITLE4=Felix Baloy|El son de baloy
TTITLE5=Benny More|Francisco Guayabal
TTITLE6=Los Hijos de Los Celebres|Medley trio matamoros
TTITLE7=Roberto Roena|Mi mambo pide campana
TTITLE8=Edgar Daniel|Mentiras
TTITLE9=Eddie Santiago|Pienso solo en ti
TTITLE10=Irakere|Dile a catalina
TTITLE11=Tentacion Cubana|En la casa de pedro
TTITLE12=Orquestra Ceiba|El bailador
TTITLE13=Son 14 and Tiburon Morales|La mulata santiaguera
TTITLE14=Vanny Jordan|Protejete
TTITLE15=Hector Lavoe|Mi gente
EXTD=YEAR: 2009
EXTT0=
EXTT1=
EXTT2=
EXTT3=
EXTT4=
EXTT5=
EXTT6=
EXTT7=
EXTT8=
EXTT9=
EXTT10=
EXTT11=
EXTT12=
EXTT13=
EXTT14=
EXTT15=
PLAYORDER=
